<svg width="161" height="32" viewBox="0 0 161 32" fill="none" xmlns="http://www.w3.org/2000/svg">
<path fill-rule="evenodd" clip-rule="evenodd" d="M11.1458 13.3999H8.08737L11.1458 4.95L11.2929 4.46652H11.3665L14.2041 13.3947H11.1458V13.3999ZM14.7874 0.504302H7.94023L0 19.8057H5.6806L6.77363 17.0259H15.5179L16.4638 19.8057H22.8748L14.7874 0.504302Z" fill="#0049BC"/>
<path fill-rule="evenodd" clip-rule="evenodd" d="M29.6852 19.811H24.0782V0.509562H29.6852V8.40248H29.7273L36.028 0.509562H42.728L35.0085 9.47451L43.3113 19.811H36.2434L29.7273 11.0667H29.6852V19.811Z" fill="#0049BC"/>
<path fill-rule="evenodd" clip-rule="evenodd" d="M50.5894 16.143V11.5817H52.2658C52.5916 11.5817 52.8858 11.6185 53.2116 11.6185C54.8512 11.7289 56.3804 12.1335 56.3804 13.8782C56.3804 15.544 54.8827 16.0274 53.2116 16.101C52.8858 16.1378 52.5548 16.1378 52.229 16.1378H50.5894V16.143ZM50.5894 4.1775H52.1922C52.56 4.1775 52.8858 4.17751 53.2116 4.21429C54.6305 4.28786 55.8339 4.66095 55.8339 6.10606C55.8339 7.40403 54.6305 7.91902 53.2116 8.1082C52.8491 8.14498 52.4865 8.14499 52.1186 8.14499H50.5894V4.1775ZM53.8317 19.7742C57.547 19.7742 61.9506 18.8073 61.9506 14.2144C61.9506 11.8813 60.5318 10.4729 57.7624 9.95269V9.87911C60.0588 9.17495 61.4041 7.84021 61.4041 5.40192C61.4041 2.10706 58.5244 0.509556 54.6305 0.509556H45.0192V19.7742H53.8317Z" fill="#0049BC"/>
<path fill-rule="evenodd" clip-rule="evenodd" d="M100.816 13.5839C100.196 13.8834 99.5025 14.0673 98.7406 14.0673V6.21643C99.5025 6.21643 100.196 6.36356 100.816 6.66309C102.014 7.29368 102.855 8.55488 102.855 10.1839C102.855 11.6973 102.014 12.9217 100.816 13.5891V13.5839ZM93.165 14.0726C92.4031 14.0726 91.7094 13.8886 91.1261 13.5891C89.8912 12.9217 89.0504 11.6973 89.0504 10.1839C89.0504 8.5181 89.8912 7.33047 91.1261 6.69988C91.7094 6.4056 92.3978 6.22169 93.165 6.22169V14.0726ZM108.609 10.1839C108.609 5.51226 105.33 2.99515 100.816 2.40659C100.159 2.32777 99.4657 2.29097 98.7406 2.29097V0.509562H93.165V2.29097C92.4714 2.29097 91.783 2.32776 91.1261 2.40133C86.5701 2.98989 83.2962 5.51226 83.2962 10.1787C83.2962 14.7662 86.5753 17.3254 91.1261 17.9192C91.783 17.9928 92.4714 18.0296 93.165 18.0296V19.8057H98.7406V18.0296C99.4657 18.0296 100.159 17.9875 100.816 17.9192C105.33 17.3254 108.609 14.7662 108.609 10.1787" fill="#0049BC"/>
<path fill-rule="evenodd" clip-rule="evenodd" d="M120.754 3.82036C124.181 3.82036 125.531 6.63174 125.531 10.0054C125.531 13.1531 124.186 16.1537 120.754 16.1537C117.37 16.1537 116.02 13.1531 116.02 10.0054C116.02 6.63174 117.37 3.82036 120.754 3.82036ZM120.754 19.932C127.602 19.932 131.249 16.1169 131.249 10.0054C131.249 3.7783 127.675 0 120.754 0C113.87 0 110.266 3.7783 110.266 10.0054C110.266 16.1169 113.944 19.932 120.754 19.932Z" fill="#0049BC"/>
<path fill-rule="evenodd" clip-rule="evenodd" d="M140.948 9.32735C140.623 9.40092 140.297 9.40093 139.966 9.40093H138.505V4.17751H139.966C140.297 4.17751 140.623 4.2143 140.948 4.25109C142.372 4.43501 143.387 5.13916 143.387 6.73141C143.387 8.39723 142.367 9.13818 140.948 9.32735ZM140.948 0.546351C140.512 0.509566 140.039 0.509562 139.566 0.509562H132.935V19.8163H138.505V13.0374H140.948C145.972 12.9638 148.962 10.6621 148.962 6.85229C148.962 2.81649 146.413 0.814326 140.948 0.551579" fill="#0049BC"/>
<path fill-rule="evenodd" clip-rule="evenodd" d="M70.038 13.3999L73.0964 5.02881L73.2803 4.47178H73.3171L76.16 13.3999H70.038ZM84.7887 19.811L76.7381 0.509562H69.9329L61.9506 19.811H67.6312L68.7611 17.0311H77.4633L78.4459 19.811H84.7887Z" fill="#0049BC"/>
<path fill-rule="evenodd" clip-rule="evenodd" d="M151.884 2.32254C151.81 2.39611 151.737 2.43287 151.632 2.43287H151.264V1.76548H151.632C151.742 1.79701 151.816 1.83906 151.889 1.87585C151.926 1.94942 151.957 2.02298 151.957 2.09655C151.957 2.17012 151.921 2.24372 151.889 2.32254H151.884ZM152.362 2.05979C152.362 1.98622 152.362 1.91265 152.325 1.79704C152.289 1.68669 152.22 1.57631 152.073 1.50274C151.957 1.42917 151.816 1.3924 151.632 1.35561H150.864V3.61524H151.269V2.76394H151.306L151.637 3.24738L151.858 3.61524H152.367L151.747 2.76394C151.963 2.76394 152.115 2.69037 152.225 2.53798C152.336 2.42762 152.373 2.24372 152.373 2.05979H152.362ZM152.987 3.3157C152.846 3.57845 152.625 3.76238 152.373 3.90951C152.152 4.01987 151.9 4.09343 151.642 4.13547H151.532C151.243 4.13547 150.949 4.06191 150.728 3.90951C150.476 3.76238 150.255 3.53641 150.113 3.3157C149.966 3.05821 149.892 2.79546 149.892 2.4644C149.892 2.16487 149.966 1.90738 150.113 1.64989C150.26 1.3924 150.476 1.20322 150.733 1.05608C150.954 0.90894 151.243 0.835379 151.537 0.835379H151.647C151.905 0.835379 152.157 0.90894 152.378 1.05608C152.63 1.20322 152.851 1.3924 152.993 1.64989C153.14 1.8706 153.213 2.17012 153.213 2.4644C153.213 2.79546 153.14 3.05821 152.993 3.3157H152.987ZM153.324 1.46598C153.14 1.12966 152.888 0.908937 152.593 0.725014C152.299 0.535836 151.973 0.467526 151.647 0.467526C151.611 0.430742 151.574 0.430738 151.537 0.430738C151.174 0.467522 150.843 0.541096 150.518 0.730274C150.229 0.914197 149.971 1.13489 149.792 1.47121C149.614 1.77074 149.54 2.10182 149.54 2.47492C149.54 2.84277 149.614 3.2106 149.798 3.51013C149.982 3.80966 150.234 4.06718 150.528 4.25636C150.859 4.44028 151.185 4.51385 151.548 4.51385H151.658C151.984 4.51385 152.315 4.39824 152.604 4.25636C152.898 4.07244 153.15 3.80966 153.334 3.51013C153.518 3.2106 153.587 2.84277 153.587 2.47492C153.587 2.10182 153.518 1.77074 153.334 1.47121" fill="#0049BC"/>
<path d="M19.9701 30.3452V32H21.4037V30.3452C23.9522 30.3452 25.2972 29.7081 25.2972 28.0003C25.2972 26.3544 23.9522 25.6553 21.4037 25.6553V23.7705H19.9701V25.6553C17.4216 25.6553 16.0854 26.3544 16.0854 28.0003C16.0854 29.7081 17.4216 30.3452 19.9701 30.3452ZM19.9701 26.6021V29.3984C18.3419 29.3984 17.519 29.0356 17.519 28.1065V27.8852C17.519 26.903 18.3419 26.6021 19.9701 26.6021ZM23.8637 28.1065C23.8637 29.0356 23.0319 29.3984 21.4037 29.3984V26.6021C23.0319 26.6021 23.8637 26.903 23.8637 27.8852V28.1065Z" fill="#0049BC"/>
<path d="M26.3157 25.7703V30.2302H27.8465L31.4392 27.0623V30.2302H32.8639V25.7703H31.333L27.7404 28.9383V25.7703H26.3157Z" fill="#0049BC"/>
<path d="M33.7014 30.2302H34.0643C35.5863 30.2302 36.0818 29.5931 36.0818 27.7171V26.7172H38.9223V30.2302H40.3647V25.7703H34.7633V27.6375C34.7633 28.8409 34.4978 29.1064 33.8696 29.1064H33.7014V30.2302Z" fill="#0049BC"/>
<path d="M41.689 30.2302H46.2374C47.4851 30.2302 48.0957 29.6639 48.0957 28.6639C48.0957 27.6729 47.4851 27.1596 46.2374 27.1596H43.1314V25.7703H41.689V30.2302ZM46.6621 28.7524C46.6621 29.1506 46.4232 29.3276 45.8923 29.3276H43.1314V28.0622H45.8923C46.4232 28.0622 46.6621 28.2126 46.6621 28.5932V28.7524Z" fill="#0049BC"/>
<path d="M50.1161 26.7172V30.2302H51.5585V26.7172H54.0008V25.7703H47.6827V26.7172H50.1161Z" fill="#0049BC"/>
<path d="M60.5678 28.133C60.5678 29.1152 59.8422 29.3984 58.4086 29.3984C56.9486 29.3984 56.2406 29.0975 56.2406 28.133V27.8764C56.2406 26.9207 56.9486 26.6021 58.4086 26.6021C59.8422 26.6021 60.5678 26.903 60.5678 27.8764V28.133ZM54.7983 25.7703V32H56.2406V29.3807C56.6919 30.0444 57.568 30.3452 58.8865 30.3452C60.851 30.3452 62.0102 29.6727 62.0102 28.0003C62.0102 26.3278 60.851 25.6553 58.8865 25.6553C57.5237 25.6553 56.6388 25.9916 56.1964 26.6995V25.7703H54.7983Z" fill="#0049BC"/>
<path d="M63.0337 30.2302H67.582C68.8297 30.2302 69.4403 29.6639 69.4403 28.6639C69.4403 27.6729 68.8297 27.1596 67.582 27.1596H64.4761V25.7703H63.0337V30.2302ZM68.0068 28.7524C68.0068 29.1506 67.7679 29.3276 67.2369 29.3276H64.4761V28.0622H67.2369C67.7679 28.0622 68.0068 28.2126 68.0068 28.5932V28.7524ZM69.989 25.7703V30.2302H71.4313V25.7703H69.989Z" fill="#0049BC"/>
<path d="M74.6178 31.4691H75.9363V30.2302H81.0333V31.4691H82.3518V29.2834H81.5465V25.7703H75.6797V27.4074C75.6797 28.2746 75.5115 28.8586 75.2549 29.3011H74.6178V31.4691ZM80.113 26.7172V29.2834H76.6C76.8035 28.8586 76.9805 28.2746 76.9805 27.4074V26.7172H80.113Z" fill="#0049BC"/>
<path d="M82.7596 30.2302H83.1224C84.6444 30.2302 85.14 29.5931 85.14 27.7171V26.7172H87.9805V30.2302H89.4229V25.7703H83.8215V27.6375C83.8215 28.8409 83.556 29.1064 82.9277 29.1064H82.7596V30.2302Z" fill="#0049BC"/>
<path d="M95.5433 28.7436V30.2302H96.9857V25.7703H92.3311C91.0746 25.7703 90.4817 26.3367 90.4817 27.257C90.4817 27.9206 90.818 28.3896 91.6586 28.5666L90.4463 30.2302H92.0303L93.1098 28.7436H95.5433ZM95.5433 26.6641V27.841H92.6231C92.163 27.841 91.9152 27.6817 91.9152 27.3454V27.2039C91.9152 26.8676 92.163 26.6641 92.6231 26.6641H95.5433Z" fill="#0049BC"/>
<path d="M100.72 25.7703V30.2302H105.525C106.755 30.2302 107.206 29.8055 107.206 28.956C107.206 28.4427 106.905 28.0003 106.082 27.8498C106.799 27.7083 107.02 27.2924 107.02 26.8322C107.02 26.1951 106.569 25.7703 105.312 25.7703H100.72ZM105.763 28.9206C105.763 29.2568 105.551 29.4073 105.082 29.4073H102.162V28.3277H105.082C105.551 28.3277 105.763 28.487 105.763 28.7967V28.9206ZM105.604 27.1154C105.604 27.372 105.471 27.549 104.985 27.549H102.162V26.5933H105.011C105.471 26.5933 105.604 26.7437 105.604 27.0003V27.1154Z" fill="#0049BC"/>
<path d="M113.724 28.1242C113.724 29.0975 113.016 29.3984 111.556 29.3984C110.104 29.3984 109.388 29.0975 109.388 28.133V27.8764C109.388 26.903 110.104 26.6021 111.556 26.6021C113.016 26.6021 113.724 26.903 113.724 27.8764V28.1242ZM107.954 28.0003C107.954 29.7878 109.228 30.3452 111.556 30.3452C113.901 30.3452 115.157 29.7878 115.157 28.0003C115.157 26.2393 113.901 25.6553 111.556 25.6553C109.228 25.6553 107.954 26.2393 107.954 28.0003Z" fill="#0049BC"/>
<path d="M115.536 31.4691H116.854V30.2302H121.951V31.4691H123.27V29.2834H122.464V25.7703H116.597V27.4074C116.597 28.2746 116.429 28.8586 116.173 29.3011H115.536V31.4691ZM121.031 26.7172V29.2834H117.518C117.721 28.8586 117.898 28.2746 117.898 27.4074V26.7172H121.031Z" fill="#0049BC"/>
<path d="M124.164 30.2302H128.712C129.96 30.2302 130.571 29.6639 130.571 28.6639C130.571 27.6729 129.96 27.1596 128.712 27.1596H125.606V25.7703H124.164V30.2302ZM129.137 28.7524C129.137 29.1506 128.898 29.3276 128.367 29.3276H125.606V28.0622H128.367C128.898 28.0622 129.137 28.2126 129.137 28.5932V28.7524ZM131.119 25.7703V30.2302H132.562V25.7703H131.119Z" fill="#0049BC"/>
</svg>
