
<svg width="375" height="285" viewBox="0 0 375 285" fill="none" xmlns="http://www.w3.org/2000/svg">
<path fill-rule="evenodd" clip-rule="evenodd" d="M254.5 50.4999C303.225 50.4999 336.5 52.2559 375 52.2559C425.39 52.2558 425.352 285 375 285C339 285 379.477 285 334.5 285C288 285 327 285 284.5 285C234.239 285 244.5 285 196 285C145.417 285 157.5 285 113.5 285C60.0964 285 32 285 6.41158e-05 285C-54.4999 285 -57.4311 0.699769 0.000108851 0.699772C36.5001 0.699774 56.6766 0.699797 114 0.699796C167.677 0.699797 200.802 50.4999 254.5 50.4999Z" fill="#F5F7FF"/>
</svg>